<svg width="243" height="163" viewBox="0 0 243 163" fill="none" xmlns="http://www.w3.org/2000/svg">
<g filter="url(#filter0_d_1_222)">
<rect x="39" y="20" width="164.92" height="85.68" rx="18.36" fill="#F5F5F4" shape-rendering="crispEdges"/>
<g filter="url(#filter1_d_1_222)">
<rect x="57.36" y="38.36" width="48.96" height="48.96" rx="12.24" fill="#7F56D9"/>
<g clip-path="url(#clip0_1_222)">
<path d="M94.2712 68.2586H93.1875V67.3023H94.2712C95.0362 67.3023 95.6737 66.6648 95.6737 65.8998V59.2061C95.6737 57.9948 94.6537 56.9748 93.4425 56.9748H86.43C85.2187 56.9748 84.1987 57.9948 84.1987 59.2061V65.8998C84.1987 66.6648 84.8362 67.3023 85.6012 67.3023H86.685V68.2586H85.6012C84.2625 68.2586 83.2425 67.1748 83.2425 65.8998V59.2061C83.2425 57.4211 84.645 56.0186 86.43 56.0186H93.5062C95.2912 56.0186 96.6937 57.4211 96.6937 59.2061V65.8998C96.6937 67.2386 95.61 68.2586 94.2712 68.2586ZM89.9362 54.9986C88.0237 54.9986 86.43 53.4048 86.43 51.4923C86.43 49.5798 88.0237 47.9861 89.9362 47.9861C91.8487 47.9861 93.4425 49.5798 93.4425 51.4923C93.4425 53.4048 91.9125 54.9986 89.9362 54.9986ZM89.9362 49.0061C88.5337 49.0061 87.3862 50.1536 87.3862 51.5561C87.3862 52.9586 88.5337 54.1061 89.9362 54.1061C91.3387 54.1061 92.4862 52.9586 92.4862 51.5561C92.4862 50.1536 91.3387 49.0061 89.9362 49.0061Z" fill="#F5F5F4"/>
<path d="M91.5938 77.6935C90.9563 77.6935 90.3825 77.3748 90 76.9285C89.6175 77.3748 89.0438 77.6935 88.4063 77.6935C87.2588 77.6935 86.3025 76.7373 86.3025 75.5898V60.0348H87.2588V75.5898C87.2588 76.2273 87.7688 76.7373 88.4063 76.7373C89.0438 76.7373 89.49 76.1635 89.49 75.5898V67.8123H90.4463V75.5898C90.4463 76.2273 90.9563 76.7373 91.5938 76.7373C92.2313 76.7373 92.7413 76.2273 92.7413 75.5898V60.0348H93.6975V75.5898C93.6975 76.7373 92.7413 77.6935 91.5938 77.6935Z" fill="#F5F5F4"/>
<path d="M84.7087 71.0636H67.05V51.0461H85.0275V52.0024H68.0062V70.1074H84.7087V71.0636Z" fill="#F5F5F4"/>
<path d="M81.585 59.9712H70.62V60.9274H81.585V59.9712Z" fill="#F5F5F4"/>
<path d="M81.585 63.2224H70.62V64.1787H81.585V63.2224Z" fill="#F5F5F4"/>
<path d="M81.585 66.5374H70.62V67.4936H81.585V66.5374Z" fill="#F5F5F4"/>
</g>
</g>
<path opacity="0.5" d="M119.306 42.6228V41.4509H127.488V42.6228H124.058V52.36H122.737V42.6228H119.306ZM133.4 49.0148V44.1782H134.657V52.36H133.4V50.975H133.314C133.123 51.3905 132.824 51.7439 132.419 52.0351C132.015 52.3227 131.503 52.4665 130.885 52.4665C130.374 52.4665 129.919 52.3547 129.522 52.1309C129.124 51.9037 128.811 51.5628 128.584 51.1082C128.357 50.6501 128.243 50.0731 128.243 49.377V44.1782H129.5V49.2918C129.5 49.8884 129.667 50.3642 130.001 50.7194C130.338 51.0745 130.768 51.252 131.29 51.252C131.603 51.252 131.92 51.1721 132.244 51.0123C132.57 50.8525 132.844 50.6075 133.064 50.2772C133.288 49.947 133.4 49.5262 133.4 49.0148ZM140.517 44.1782V45.2435H136.277V44.1782H140.517ZM137.513 42.2179H138.77V50.0162C138.77 50.3713 138.822 50.6377 138.925 50.8152C139.031 50.9892 139.166 51.1064 139.329 51.1668C139.496 51.2236 139.672 51.252 139.857 51.252C139.995 51.252 140.109 51.2449 140.198 51.2307C140.287 51.213 140.358 51.1988 140.411 51.1881L140.666 52.3174C140.581 52.3493 140.462 52.3813 140.31 52.4133C140.157 52.4488 139.963 52.4665 139.729 52.4665C139.374 52.4665 139.026 52.3902 138.685 52.2375C138.348 52.0848 138.067 51.8522 137.843 51.5397C137.623 51.2272 137.513 50.833 137.513 50.3571V42.2179ZM145.644 52.5304C144.906 52.5304 144.258 52.3547 143.7 52.0031C143.146 51.6515 142.713 51.1597 142.4 50.5276C142.091 49.8955 141.937 49.1569 141.937 48.3117C141.937 47.4594 142.091 46.7155 142.4 46.0798C142.713 45.4441 143.146 44.9505 143.7 44.599C144.258 44.2474 144.906 44.0716 145.644 44.0716C146.383 44.0716 147.029 44.2474 147.583 44.599C148.141 44.9505 148.574 45.4441 148.883 46.0798C149.195 46.7155 149.352 47.4594 149.352 48.3117C149.352 49.1569 149.195 49.8955 148.883 50.5276C148.574 51.1597 148.141 51.6515 147.583 52.0031C147.029 52.3547 146.383 52.5304 145.644 52.5304ZM145.644 51.4012C146.205 51.4012 146.667 51.2574 147.029 50.9697C147.391 50.6821 147.66 50.3039 147.834 49.8351C148.008 49.3664 148.095 48.8586 148.095 48.3117C148.095 47.7648 148.008 47.2552 147.834 46.7829C147.66 46.3106 147.391 45.9289 147.029 45.6377C146.667 45.3465 146.205 45.2009 145.644 45.2009C145.083 45.2009 144.622 45.3465 144.259 45.6377C143.897 45.9289 143.629 46.3106 143.455 46.7829C143.281 47.2552 143.194 47.7648 143.194 48.3117C143.194 48.8586 143.281 49.3664 143.455 49.8351C143.629 50.3039 143.897 50.6821 144.259 50.9697C144.622 51.2574 145.083 51.4012 145.644 51.4012ZM151.271 52.36V44.1782H152.485V45.414H152.57C152.719 45.0091 152.989 44.6807 153.38 44.4285C153.771 44.1764 154.211 44.0503 154.701 44.0503C154.793 44.0503 154.909 44.0521 155.047 44.0557C155.186 44.0592 155.291 44.0645 155.362 44.0716V45.35C155.319 45.3394 155.221 45.3234 155.069 45.3021C154.919 45.2772 154.761 45.2648 154.594 45.2648C154.197 45.2648 153.842 45.3483 153.529 45.5152C153.22 45.6785 152.975 45.9058 152.794 46.197C152.617 46.4846 152.528 46.8131 152.528 47.1824V52.36H151.271ZM162.647 46.0106L161.518 46.3302C161.447 46.1419 161.342 45.9591 161.204 45.7815C161.069 45.6004 160.884 45.4512 160.65 45.3341C160.415 45.2169 160.115 45.1583 159.749 45.1583C159.249 45.1583 158.831 45.2737 158.498 45.5045C158.167 45.7318 158.002 46.0212 158.002 46.3728C158.002 46.6853 158.116 46.9321 158.343 47.1132C158.57 47.2943 158.926 47.4452 159.408 47.566L160.623 47.8642C161.355 48.0418 161.9 48.3135 162.258 48.6792C162.617 49.0414 162.796 49.5084 162.796 50.0802C162.796 50.5489 162.661 50.9679 162.391 51.3373C162.125 51.7066 161.752 51.9978 161.273 52.2108C160.793 52.4239 160.236 52.5304 159.6 52.5304C158.766 52.5304 158.075 52.3493 157.528 51.9871C156.981 51.6249 156.635 51.0958 156.489 50.3998L157.683 50.1015C157.796 50.5418 158.011 50.8721 158.327 51.0922C158.647 51.3124 159.064 51.4225 159.579 51.4225C160.165 51.4225 160.63 51.2982 160.975 51.0496C161.323 50.7975 161.497 50.4956 161.497 50.1441C161.497 49.86 161.397 49.6221 161.198 49.4303C160.999 49.235 160.694 49.0894 160.282 48.9935L158.918 48.6739C158.169 48.4963 157.619 48.2211 157.267 47.8483C156.919 47.4718 156.745 47.0013 156.745 46.4367C156.745 45.975 156.875 45.5667 157.134 45.2115C157.397 44.8564 157.754 44.5777 158.205 44.3753C158.659 44.1728 159.174 44.0716 159.749 44.0716C160.559 44.0716 161.195 44.2492 161.656 44.6043C162.122 44.9594 162.452 45.4282 162.647 46.0106Z" fill="#101828"/>
<path d="M120.501 80.36V77.5901L126.973 71.5976C127.524 71.0649 127.986 70.5855 128.358 70.1593C128.737 69.7332 129.024 69.316 129.22 68.9076C129.415 68.4933 129.513 68.0464 129.513 67.567C129.513 67.0343 129.391 66.5757 129.149 66.191C128.906 65.8003 128.574 65.5014 128.154 65.2943C127.734 65.0812 127.258 64.9747 126.725 64.9747C126.169 64.9747 125.683 65.0871 125.269 65.312C124.855 65.5369 124.535 65.8595 124.31 66.2797C124.085 66.6999 123.973 67.2001 123.973 67.7801H120.324C120.324 66.5905 120.593 65.5577 121.132 64.6817C121.67 63.8058 122.425 63.1281 123.396 62.6487C124.366 62.1693 125.485 61.9296 126.751 61.9296C128.054 61.9296 129.187 62.1604 130.152 62.6221C131.122 63.0778 131.877 63.7111 132.416 64.5219C132.954 65.3328 133.223 66.262 133.223 67.3096C133.223 67.9961 133.087 68.6738 132.815 69.3426C132.549 70.0114 132.072 70.7542 131.386 71.5709C130.699 72.3818 129.731 73.3554 128.483 74.4917L125.828 77.0929V77.2172H133.463V80.36H120.501ZM142.889 80.6086C141.634 80.6086 140.516 80.3777 139.533 79.9161C138.557 79.4544 137.781 78.8182 137.207 78.0074C136.633 77.1965 136.334 76.2673 136.311 75.2197H140.039C140.081 75.924 140.377 76.4952 140.927 76.9331C141.478 77.3711 142.132 77.5901 142.889 77.5901C143.493 77.5901 144.026 77.4569 144.487 77.1906C144.955 76.9183 145.319 76.5425 145.579 76.0631C145.846 75.5778 145.979 75.0214 145.979 74.3941C145.979 73.7549 145.843 73.1926 145.57 72.7073C145.304 72.222 144.934 71.8432 144.461 71.5709C143.987 71.2987 143.446 71.1596 142.836 71.1537C142.303 71.1537 141.785 71.2632 141.282 71.4821C140.785 71.7011 140.397 72 140.119 72.3788L136.701 71.7662L137.562 62.1782H148.678V65.3209H140.732L140.261 69.8753H140.368C140.687 69.4254 141.17 69.0526 141.815 68.7566C142.46 68.4607 143.182 68.3128 143.981 68.3128C145.076 68.3128 146.053 68.5702 146.911 69.0851C147.769 69.6 148.447 70.3073 148.944 71.2069C149.441 72.1006 149.687 73.1305 149.681 74.2964C149.687 75.5216 149.403 76.6106 148.828 77.5635C148.26 78.5104 147.464 79.2562 146.44 79.8007C145.422 80.3393 144.239 80.6086 142.889 80.6086ZM159.491 80.7595C157.964 80.7536 156.65 80.3777 155.549 79.632C154.454 78.8863 153.611 77.8061 153.019 76.3916C152.433 74.9771 152.143 73.2755 152.149 71.2868C152.149 69.3041 152.442 67.6144 153.028 66.2176C153.62 64.8208 154.463 63.7584 155.558 63.0304C156.659 62.2965 157.97 61.9296 159.491 61.9296C161.012 61.9296 162.32 62.2965 163.415 63.0304C164.516 63.7643 165.362 64.8297 165.954 66.2265C166.546 67.6173 166.839 69.3041 166.833 71.2868C166.833 73.2814 166.537 74.9859 165.945 76.4005C165.359 77.815 164.519 78.8951 163.424 79.6409C162.329 80.3866 161.018 80.7595 159.491 80.7595ZM159.491 77.5723C160.532 77.5723 161.364 77.0486 161.985 76.001C162.607 74.9534 162.915 73.382 162.909 71.2868C162.909 69.9078 162.767 68.7596 162.483 67.8422C162.204 66.9249 161.808 66.2353 161.293 65.7737C160.784 65.312 160.183 65.0812 159.491 65.0812C158.455 65.0812 157.626 65.5991 157.005 66.6348C156.384 67.6706 156.07 69.2213 156.064 71.2868C156.064 72.6836 156.203 73.8496 156.481 74.7847C156.765 75.7139 157.165 76.4123 157.68 76.8799C158.195 77.3415 158.798 77.5723 159.491 77.5723ZM175.007 77.5901V65.0191H178.185V77.5901H175.007ZM170.311 72.8937V69.7155H182.882V72.8937H170.311Z" fill="#101828"/>
<rect x="39.3825" y="20.3825" width="164.155" height="84.915" rx="17.9775" stroke="#7F56D9" stroke-width="0.765" shape-rendering="crispEdges"/>
</g>
<defs>
<filter id="filter0_d_1_222" x="0.75" y="0.110001" width="241.42" height="162.18" filterUnits="userSpaceOnUse" color-interpolation-filters="sRGB">
<feFlood flood-opacity="0" result="BackgroundImageFix"/>
<feColorMatrix in="SourceAlpha" type="matrix" values="0 0 0 0 0 0 0 0 0 0 0 0 0 0 0 0 0 0 127 0" result="hardAlpha"/>
<feOffset dy="18.36"/>
<feGaussianBlur stdDeviation="19.125"/>
<feComposite in2="hardAlpha" operator="out"/>
<feColorMatrix type="matrix" values="0 0 0 0 0 0 0 0 0 0 0 0 0 0 0 0 0 0 0.15 0"/>
<feBlend mode="normal" in2="BackgroundImageFix" result="effect1_dropShadow_1_222"/>
<feBlend mode="normal" in="SourceGraphic" in2="effect1_dropShadow_1_222" result="shape"/>
</filter>
<filter id="filter1_d_1_222" x="19.11" y="18.47" width="125.46" height="125.46" filterUnits="userSpaceOnUse" color-interpolation-filters="sRGB">
<feFlood flood-opacity="0" result="BackgroundImageFix"/>
<feColorMatrix in="SourceAlpha" type="matrix" values="0 0 0 0 0 0 0 0 0 0 0 0 0 0 0 0 0 0 127 0" result="hardAlpha"/>
<feOffset dy="18.36"/>
<feGaussianBlur stdDeviation="19.125"/>
<feComposite in2="hardAlpha" operator="out"/>
<feColorMatrix type="matrix" values="0 0 0 0 0.0509804 0 0 0 0 0.0470588 0 0 0 0 0.219608 0 0 0 0.15 0"/>
<feBlend mode="normal" in2="BackgroundImageFix" result="effect1_dropShadow_1_222"/>
<feBlend mode="normal" in="SourceGraphic" in2="effect1_dropShadow_1_222" result="shape"/>
</filter>
<clipPath id="clip0_1_222">
<rect width="30.6" height="30.6" fill="white" transform="translate(66.54 47.5399)"/>
</clipPath>
</defs>
</svg>
