<svg width="222" height="266" viewBox="0 0 222 266" fill="none" xmlns="http://www.w3.org/2000/svg">
<g filter="url(#filter0_d_1_197)">
<rect x="39" y="20" width="144.72" height="189.2" rx="18.36" fill="#F5F5F4" shape-rendering="crispEdges"/>
<path d="M111.36 42.3601C116.088 42.3601 120.769 43.2913 125.137 45.1004C129.504 46.9096 133.473 49.5614 136.816 52.9043C140.159 56.2472 142.81 60.2158 144.62 64.5835C146.429 68.9512 147.36 73.6325 147.36 78.3601C147.36 83.0877 146.429 87.769 144.62 92.1367C142.81 96.5044 140.159 100.473 136.816 103.816C133.473 107.159 129.504 109.811 125.137 111.62C120.769 113.429 116.088 114.36 111.36 114.36C106.632 114.36 101.951 113.429 97.5834 111.62C93.2156 109.811 89.247 107.159 85.9041 103.816C82.5612 100.473 79.9095 96.5044 78.1003 92.1367C76.2911 87.769 75.36 83.0877 75.36 78.3601C75.36 73.6325 76.2912 68.9512 78.1003 64.5835C79.9095 60.2158 82.5612 56.2472 85.9042 52.9042C89.2471 49.5613 93.2157 46.9096 97.5834 45.1004C101.951 43.2913 106.632 42.3601 111.36 42.3601L111.36 42.3601Z" stroke="#EAECF0" stroke-width="8" stroke-linecap="round" stroke-linejoin="round"/>
<path d="M111.36 42.3601C118.962 42.3601 126.37 44.7669 132.52 49.2355C138.671 53.7041 143.249 60.0051 145.598 67.2355C147.947 74.4659 147.947 82.2544 145.598 89.4847C143.249 96.7151 138.671 103.016 132.52 107.485" stroke="#7F56D9" stroke-width="8" stroke-linecap="round" stroke-linejoin="round"/>
<path d="M94.8528 154.849C93.598 154.849 92.4794 154.618 91.4969 154.156C90.5204 153.695 89.745 153.058 89.1709 152.247C88.5968 151.437 88.2979 150.507 88.2743 149.46H92.003C92.0444 150.164 92.3403 150.735 92.8907 151.173C93.4412 151.611 94.0952 151.83 94.8528 151.83C95.4564 151.83 95.9891 151.697 96.4508 151.431C96.9183 151.158 97.2823 150.783 97.5427 150.303C97.8091 149.818 97.9422 149.262 97.9422 148.634C97.9422 147.995 97.8061 147.433 97.5339 146.947C97.2675 146.462 96.8976 146.083 96.4241 145.811C95.9506 145.539 95.4091 145.4 94.7995 145.394C94.2668 145.394 93.7489 145.503 93.2459 145.722C92.7487 145.941 92.361 146.24 92.0829 146.619L88.6649 146.006L89.526 136.418H100.641V139.561H92.6954L92.2249 144.115H92.3314C92.651 143.666 93.1334 143.293 93.7785 142.997C94.4237 142.701 95.1457 142.553 95.9447 142.553C97.0397 142.553 98.0162 142.81 98.8744 143.325C99.7326 143.84 100.41 144.547 100.907 145.447C101.405 146.341 101.65 147.371 101.644 148.537C101.65 149.762 101.366 150.851 100.792 151.804C100.224 152.751 99.4278 153.496 98.4039 154.041C97.3859 154.579 96.2022 154.849 94.8528 154.849ZM104.432 154.6V136.418H108.276V144.435H108.516L115.059 136.418H119.666L112.919 144.559L119.746 154.6H115.147L110.167 147.125L108.276 149.433V154.6H104.432ZM125.896 151.83V139.259H129.075V151.83H125.896ZM121.2 147.134V143.956H133.771V147.134H121.2Z" fill="#101828"/>
<path opacity="0.5" d="M68.0818 181.386C68.0818 182.536 67.8741 183.53 67.4586 184.368C67.0431 185.207 66.4732 185.853 65.7487 186.307C65.0243 186.762 64.1969 186.989 63.2665 186.989C62.3361 186.989 61.5087 186.762 60.7843 186.307C60.0598 185.853 59.4899 185.207 59.0744 184.368C58.6589 183.53 58.4512 182.536 58.4512 181.386C58.4512 180.235 58.6589 179.241 59.0744 178.403C59.4899 177.565 60.0598 176.918 60.7843 176.464C61.5087 176.009 62.3361 175.782 63.2665 175.782C64.1969 175.782 65.0243 176.009 65.7487 176.464C66.4732 176.918 67.0431 177.565 67.4586 178.403C67.8741 179.241 68.0818 180.235 68.0818 181.386ZM66.8034 181.386C66.8034 180.441 66.6454 179.644 66.3294 178.994C66.0169 178.344 65.5925 177.852 65.0563 177.518C64.5236 177.185 63.927 177.018 63.2665 177.018C62.606 177.018 62.0076 177.185 61.4714 177.518C60.9387 177.852 60.5144 178.344 60.1983 178.994C59.8858 179.644 59.7296 180.441 59.7296 181.386C59.7296 182.33 59.8858 183.127 60.1983 183.777C60.5144 184.427 60.9387 184.919 61.4714 185.253C62.0076 185.587 62.606 185.753 63.2665 185.753C63.927 185.753 64.5236 185.587 65.0563 185.253C65.5925 184.919 66.0169 184.427 66.3294 183.777C66.6454 183.127 66.8034 182.33 66.8034 181.386ZM71.3897 181.918V186.84H70.1326V178.658H71.3471V179.937H71.4536C71.6454 179.521 71.9366 179.187 72.3272 178.935C72.7179 178.68 73.2221 178.552 73.84 178.552C74.394 178.552 74.8787 178.665 75.2942 178.893C75.7097 179.116 76.0328 179.457 76.2637 179.915C76.4945 180.37 76.6099 180.945 76.6099 181.641V186.84H75.3528V181.726C75.3528 181.084 75.1859 180.583 74.8521 180.224C74.5183 179.862 74.0602 179.681 73.4778 179.681C73.0765 179.681 72.7179 179.768 72.4018 179.942C72.0893 180.116 71.8425 180.37 71.6614 180.704C71.4803 181.038 71.3897 181.442 71.3897 181.918ZM80.1641 175.931V186.84H78.907V175.931H80.1641ZM82.4666 186.84V178.658H83.7237V186.84H82.4666ZM83.1058 177.295C82.8608 177.295 82.6495 177.211 82.4719 177.044C82.2979 176.877 82.2109 176.677 82.2109 176.442C82.2109 176.208 82.2979 176.007 82.4719 175.84C82.6495 175.674 82.8608 175.59 83.1058 175.59C83.3508 175.59 83.5604 175.674 83.7344 175.84C83.9119 176.007 84.0007 176.208 84.0007 176.442C84.0007 176.677 83.9119 176.877 83.7344 177.044C83.5604 177.211 83.3508 177.295 83.1058 177.295ZM87.2833 181.918V186.84H86.0262V178.658H87.2407V179.937H87.3472C87.539 179.521 87.8302 179.187 88.2208 178.935C88.6114 178.68 89.1157 178.552 89.7336 178.552C90.2875 178.552 90.7723 178.665 91.1878 178.893C91.6032 179.116 91.9264 179.457 92.1572 179.915C92.388 180.37 92.5035 180.945 92.5035 181.641V186.84H91.2463V181.726C91.2463 181.084 91.0794 180.583 90.7456 180.224C90.4118 179.862 89.9537 179.681 89.3713 179.681C88.9701 179.681 88.6114 179.768 88.2954 179.942C87.9829 180.116 87.7361 180.37 87.5549 180.704C87.3738 181.038 87.2833 181.442 87.2833 181.918ZM98.231 187.011C97.4426 187.011 96.7626 186.837 96.1909 186.489C95.6227 186.137 95.1841 185.647 94.8752 185.018C94.5698 184.386 94.4171 183.651 94.4171 182.813C94.4171 181.975 94.5698 181.236 94.8752 180.597C95.1841 179.954 95.6138 179.454 96.1642 179.095C96.7182 178.733 97.3645 178.552 98.1031 178.552C98.5293 178.552 98.9501 178.623 99.3656 178.765C99.7811 178.907 100.159 179.138 100.5 179.457C100.841 179.773 101.113 180.192 101.315 180.714C101.518 181.236 101.619 181.879 101.619 182.643V183.175H95.312V182.089H100.34C100.34 181.627 100.248 181.215 100.063 180.853C99.8823 180.491 99.623 180.205 99.2857 179.995C98.9519 179.786 98.5577 179.681 98.1031 179.681C97.6024 179.681 97.1692 179.805 96.8034 180.054C96.4412 180.299 96.1625 180.618 95.9671 181.013C95.7718 181.407 95.6742 181.829 95.6742 182.28V183.005C95.6742 183.623 95.7807 184.147 95.9938 184.576C96.2104 185.002 96.5105 185.327 96.894 185.551C97.2775 185.771 97.7232 185.881 98.231 185.881C98.5612 185.881 98.8595 185.835 99.1259 185.743C99.3958 185.647 99.6284 185.505 99.8237 185.317C100.019 185.125 100.17 184.887 100.276 184.603L101.491 184.944C101.363 185.356 101.148 185.718 100.846 186.03C100.545 186.339 100.172 186.581 99.7278 186.755C99.2839 186.925 98.785 187.011 98.231 187.011ZM116.699 179.34H115.378C115.3 178.96 115.163 178.626 114.967 178.339C114.776 178.051 114.541 177.81 114.264 177.614C113.991 177.415 113.687 177.266 113.354 177.167C113.02 177.067 112.672 177.018 112.309 177.018C111.649 177.018 111.051 177.185 110.514 177.518C109.982 177.852 109.557 178.344 109.241 178.994C108.929 179.644 108.773 180.441 108.773 181.386C108.773 182.33 108.929 183.127 109.241 183.777C109.557 184.427 109.982 184.919 110.514 185.253C111.051 185.587 111.649 185.753 112.309 185.753C112.672 185.753 113.02 185.704 113.354 185.604C113.687 185.505 113.991 185.357 114.264 185.162C114.541 184.963 114.776 184.72 114.967 184.432C115.163 184.141 115.3 183.807 115.378 183.431H116.699C116.599 183.989 116.418 184.487 116.155 184.928C115.893 185.368 115.566 185.743 115.175 186.052C114.785 186.357 114.346 186.59 113.86 186.75C113.377 186.909 112.86 186.989 112.309 186.989C111.379 186.989 110.552 186.762 109.827 186.307C109.103 185.853 108.533 185.207 108.117 184.368C107.702 183.53 107.494 182.536 107.494 181.386C107.494 180.235 107.702 179.241 108.117 178.403C108.533 177.565 109.103 176.918 109.827 176.464C110.552 176.009 111.379 175.782 112.309 175.782C112.86 175.782 113.377 175.862 113.86 176.022C114.346 176.181 114.785 176.416 115.175 176.725C115.566 177.03 115.893 177.403 116.155 177.843C116.418 178.28 116.599 178.779 116.699 179.34ZM121.987 187.011C121.248 187.011 120.6 186.835 120.043 186.483C119.489 186.132 119.055 185.64 118.743 185.008C118.434 184.376 118.279 183.637 118.279 182.792C118.279 181.94 118.434 181.196 118.743 180.56C119.055 179.924 119.489 179.431 120.043 179.079C120.6 178.728 121.248 178.552 121.987 178.552C122.725 178.552 123.372 178.728 123.926 179.079C124.483 179.431 124.916 179.924 125.225 180.56C125.538 181.196 125.694 181.94 125.694 182.792C125.694 183.637 125.538 184.376 125.225 185.008C124.916 185.64 124.483 186.132 123.926 186.483C123.372 186.835 122.725 187.011 121.987 187.011ZM121.987 185.881C122.548 185.881 123.009 185.737 123.372 185.45C123.734 185.162 124.002 184.784 124.176 184.315C124.35 183.846 124.437 183.339 124.437 182.792C124.437 182.245 124.35 181.735 124.176 181.263C124.002 180.791 123.734 180.409 123.372 180.118C123.009 179.827 122.548 179.681 121.987 179.681C121.426 179.681 120.964 179.827 120.602 180.118C120.24 180.409 119.971 180.791 119.797 181.263C119.623 181.735 119.536 182.245 119.536 182.792C119.536 183.339 119.623 183.846 119.797 184.315C119.971 184.784 120.24 185.162 120.602 185.45C120.964 185.737 121.426 185.881 121.987 185.881ZM132.769 183.495V178.658H134.026V186.84H132.769V185.455H132.684C132.492 185.871 132.194 186.224 131.789 186.515C131.384 186.803 130.873 186.947 130.255 186.947C129.744 186.947 129.289 186.835 128.892 186.611C128.494 186.384 128.181 186.043 127.954 185.588C127.727 185.13 127.613 184.553 127.613 183.857V178.658H128.87V183.772C128.87 184.368 129.037 184.844 129.371 185.199C129.708 185.555 130.138 185.732 130.66 185.732C130.972 185.732 131.29 185.652 131.613 185.492C131.94 185.333 132.214 185.088 132.434 184.757C132.657 184.427 132.769 184.006 132.769 183.495ZM136.329 186.84V178.658H137.543V179.894H137.629C137.778 179.489 138.048 179.161 138.438 178.909C138.829 178.656 139.269 178.53 139.759 178.53C139.852 178.53 139.967 178.532 140.106 178.536C140.244 178.539 140.349 178.545 140.42 178.552V179.83C140.377 179.819 140.28 179.804 140.127 179.782C139.978 179.757 139.82 179.745 139.653 179.745C139.255 179.745 138.9 179.828 138.587 179.995C138.278 180.159 138.033 180.386 137.852 180.677C137.675 180.965 137.586 181.293 137.586 181.663V186.84H136.329ZM147.705 180.491L146.576 180.81C146.505 180.622 146.4 180.439 146.262 180.262C146.127 180.08 145.942 179.931 145.708 179.814C145.474 179.697 145.173 179.638 144.808 179.638C144.307 179.638 143.89 179.754 143.556 179.985C143.226 180.212 143.061 180.501 143.061 180.853C143.061 181.165 143.174 181.412 143.401 181.593C143.629 181.774 143.984 181.925 144.467 182.046L145.681 182.344C146.413 182.522 146.958 182.794 147.317 183.159C147.675 183.522 147.855 183.989 147.855 184.56C147.855 185.029 147.72 185.448 147.45 185.817C147.183 186.187 146.811 186.478 146.331 186.691C145.852 186.904 145.294 187.011 144.659 187.011C143.824 187.011 143.133 186.829 142.586 186.467C142.04 186.105 141.693 185.576 141.548 184.88L142.741 184.582C142.855 185.022 143.069 185.352 143.385 185.572C143.705 185.793 144.122 185.903 144.637 185.903C145.223 185.903 145.688 185.778 146.033 185.53C146.381 185.278 146.555 184.976 146.555 184.624C146.555 184.34 146.455 184.102 146.257 183.91C146.058 183.715 145.752 183.569 145.34 183.474L143.977 183.154C143.227 182.976 142.677 182.701 142.325 182.328C141.977 181.952 141.803 181.481 141.803 180.917C141.803 180.455 141.933 180.047 142.192 179.692C142.455 179.337 142.812 179.058 143.263 178.855C143.717 178.653 144.232 178.552 144.808 178.552C145.617 178.552 146.253 178.729 146.715 179.084C147.18 179.44 147.51 179.908 147.705 180.491ZM153.177 187.011C152.389 187.011 151.709 186.837 151.137 186.489C150.569 186.137 150.13 185.647 149.821 185.018C149.516 184.386 149.363 183.651 149.363 182.813C149.363 181.975 149.516 181.236 149.821 180.597C150.13 179.954 150.56 179.454 151.111 179.095C151.664 178.733 152.311 178.552 153.049 178.552C153.476 178.552 153.896 178.623 154.312 178.765C154.727 178.907 155.106 179.138 155.446 179.457C155.787 179.773 156.059 180.192 156.261 180.714C156.464 181.236 156.565 181.879 156.565 182.643V183.175H150.258V182.089H155.287C155.287 181.627 155.194 181.215 155.01 180.853C154.829 180.491 154.569 180.205 154.232 179.995C153.898 179.786 153.504 179.681 153.049 179.681C152.549 179.681 152.115 179.805 151.75 180.054C151.388 180.299 151.109 180.618 150.913 181.013C150.718 181.407 150.62 181.829 150.62 182.28V183.005C150.62 183.623 150.727 184.147 150.94 184.576C151.157 185.002 151.457 185.327 151.84 185.551C152.224 185.771 152.669 185.881 153.177 185.881C153.508 185.881 153.806 185.835 154.072 185.743C154.342 185.647 154.575 185.505 154.77 185.317C154.965 185.125 155.116 184.887 155.223 184.603L156.437 184.944C156.309 185.356 156.095 185.718 155.793 186.03C155.491 186.339 155.118 186.581 154.674 186.755C154.23 186.925 153.731 187.011 153.177 187.011ZM164.273 180.491L163.144 180.81C163.073 180.622 162.968 180.439 162.829 180.262C162.694 180.08 162.51 179.931 162.275 179.814C162.041 179.697 161.741 179.638 161.375 179.638C160.874 179.638 160.457 179.754 160.123 179.985C159.793 180.212 159.628 180.501 159.628 180.853C159.628 181.165 159.742 181.412 159.969 181.593C160.196 181.774 160.551 181.925 161.034 182.046L162.249 182.344C162.98 182.522 163.525 182.794 163.884 183.159C164.243 183.522 164.422 183.989 164.422 184.56C164.422 185.029 164.287 185.448 164.017 185.817C163.751 186.187 163.378 186.478 162.899 186.691C162.419 186.904 161.862 187.011 161.226 187.011C160.391 187.011 159.701 186.829 159.154 186.467C158.607 186.105 158.261 185.576 158.115 184.88L159.308 184.582C159.422 185.022 159.637 185.352 159.953 185.572C160.272 185.793 160.69 185.903 161.205 185.903C161.791 185.903 162.256 185.778 162.6 185.53C162.948 185.278 163.122 184.976 163.122 184.624C163.122 184.34 163.023 184.102 162.824 183.91C162.625 183.715 162.32 183.569 161.908 183.474L160.544 183.154C159.795 182.976 159.244 182.701 158.893 182.328C158.545 181.952 158.371 181.481 158.371 180.917C158.371 180.455 158.5 180.047 158.76 179.692C159.022 179.337 159.379 179.058 159.83 178.855C160.285 178.653 160.8 178.552 161.375 178.552C162.185 178.552 162.82 178.729 163.282 179.084C163.747 179.44 164.077 179.908 164.273 180.491Z" fill="#101828"/>
<rect x="39.3825" y="20.3825" width="143.955" height="188.435" rx="17.9775" stroke="#7F56D9" stroke-width="0.765" shape-rendering="crispEdges"/>
</g>
<defs>
<filter id="filter0_d_1_197" x="0.75" y="0.110001" width="221.22" height="265.7" filterUnits="userSpaceOnUse" color-interpolation-filters="sRGB">
<feFlood flood-opacity="0" result="BackgroundImageFix"/>
<feColorMatrix in="SourceAlpha" type="matrix" values="0 0 0 0 0 0 0 0 0 0 0 0 0 0 0 0 0 0 127 0" result="hardAlpha"/>
<feOffset dy="18.36"/>
<feGaussianBlur stdDeviation="19.125"/>
<feComposite in2="hardAlpha" operator="out"/>
<feColorMatrix type="matrix" values="0 0 0 0 0 0 0 0 0 0 0 0 0 0 0 0 0 0 0.15 0"/>
<feBlend mode="normal" in2="BackgroundImageFix" result="effect1_dropShadow_1_197"/>
<feBlend mode="normal" in="SourceGraphic" in2="effect1_dropShadow_1_197" result="shape"/>
</filter>
</defs>
</svg>
