<svg width="27" height="29" viewBox="0 0 27 29" fill="none" xmlns="http://www.w3.org/2000/svg">
<path d="M17.273 0.629542C11.3935 -0.264628 5.86944 3.55953 4.68378 9.34188C4.47284 10.3752 4.1554 11.2117 3.71588 11.8988C3.67682 11.9608 3.64166 12.0258 3.61139 12.0927L1.48132 16.8329C1.27911 17.2837 1.31134 17.8042 1.56726 18.2262C1.8241 18.649 2.27142 18.9176 2.76465 18.946L5.19165 19.0837V21.7597C5.19165 23.087 6.27087 24.1662 7.59717 24.1662H8.96942V27.3658C8.96942 28.194 9.64136 28.8659 10.4695 28.8659H20.5175C21.3457 28.8659 22.0176 28.194 22.0176 27.3658C22.0176 24.7542 22.842 20.7928 24.682 17.8277C24.683 17.8267 24.683 17.8257 24.6839 17.8247C26.3677 15.3694 26.9781 12.3764 26.4009 9.38876C26.4009 9.38827 26.4009 9.38827 26.4009 9.38827C25.5239 4.84871 21.8555 1.32882 17.273 0.629542ZM22.1847 16.1639C22.1603 16.1991 22.1378 16.2357 22.1163 16.2728C20.4824 18.9167 19.3514 22.5391 19.0798 25.8656H11.9697V23.5714C11.9697 22.2451 10.8905 21.1659 9.56323 21.1659H8.19195V18.5221C8.19195 17.2475 7.19482 16.1927 5.92217 16.12L5.11156 16.0741L6.30504 13.418C6.91448 12.437 7.34618 11.2991 7.62352 9.94398C8.4879 5.72871 12.5352 2.93934 16.8198 3.59565C20.0995 4.09571 22.8273 6.71223 23.4553 9.95716C23.8812 12.1649 23.4299 14.3693 22.1847 16.1639ZM0.587646 23.4015C0.587646 26.102 2.78516 28.2995 5.48566 28.2995C6.31385 28.2995 6.98578 27.6275 6.98578 26.7993C6.98578 25.9711 6.31384 25.2992 5.48566 25.2992C4.43964 25.2992 3.58795 24.4475 3.58795 23.4015C3.58795 22.5733 2.91601 21.9013 2.08783 21.9013C1.25958 21.9013 0.587646 22.5733 0.587646 23.4015Z" fill="#F1BF5A"/>
</svg>
