<svg width="126" height="126" viewBox="0 0 126 126" fill="none" xmlns="http://www.w3.org/2000/svg">
<g filter="url(#filter0_d_1_208)">
<rect x="38.36" y="19.9399" width="48.96" height="48.96" rx="12.24" fill="#7F56D9"/>
<g clip-path="url(#clip0_1_208)">
<path d="M65.6999 54.35H59.3999L58.6499 52.325H47.3249V33.05C47.3249 32.15 48.0749 31.4 48.9749 31.4H77.0249C77.9249 31.4 78.6749 32.15 78.6749 33.05V52.4H67.1999L65.6999 54.35ZM60.2249 53.225H65.1749L66.6749 51.2H77.5499V33.05C77.5499 32.75 77.3249 32.525 77.0249 32.525H48.9749C48.6749 32.525 48.4499 32.75 48.4499 33.05V51.275H59.4749L60.2249 53.225Z" fill="white"/>
<path d="M75.5999 56.6H50.3999C47.6999 56.6 45.5249 54.425 45.5249 51.725V51.125H59.3999L60.1499 53.15H65.0999L66.5999 51.125H80.3999V51.725C80.4749 54.425 78.2249 56.6 75.5999 56.6ZM46.7249 52.325C47.0249 54.125 48.5249 55.475 50.3999 55.475H75.5249C77.3999 55.475 78.9749 54.125 79.1999 52.325H67.1999L65.6999 54.35H59.3999L58.6499 52.325H46.7249Z" fill="white"/>
<path d="M57.5249 35.375H51.7499V40.4H57.5249V35.375Z" fill="white"/>
<path d="M58.0499 40.925H51.1499V34.775H58.0499V40.925ZM52.2749 39.8H56.9249V35.9H52.2749V39.8Z" fill="white"/>
<path d="M57.5249 43.325H51.7499V48.3499H57.5249V43.325Z" fill="white"/>
<path d="M58.0499 48.95H51.1499V42.8H58.0499V48.95ZM52.2749 47.825H56.9249V43.925H52.2749V47.825Z" fill="white"/>
<path d="M74.5499 37.25H61.1249V38.375H74.5499V37.25Z" fill="white"/>
<path d="M74.5499 45.275H61.1249V46.4H74.5499V45.275Z" fill="white"/>
</g>
</g>
<defs>
<filter id="filter0_d_1_208" x="0.109985" y="0.049942" width="125.46" height="125.46" filterUnits="userSpaceOnUse" color-interpolation-filters="sRGB">
<feFlood flood-opacity="0" result="BackgroundImageFix"/>
<feColorMatrix in="SourceAlpha" type="matrix" values="0 0 0 0 0 0 0 0 0 0 0 0 0 0 0 0 0 0 127 0" result="hardAlpha"/>
<feOffset dy="18.36"/>
<feGaussianBlur stdDeviation="19.125"/>
<feComposite in2="hardAlpha" operator="out"/>
<feColorMatrix type="matrix" values="0 0 0 0 0.0509804 0 0 0 0 0.0470588 0 0 0 0 0.219608 0 0 0 0.15 0"/>
<feBlend mode="normal" in2="BackgroundImageFix" result="effect1_dropShadow_1_208"/>
<feBlend mode="normal" in="SourceGraphic" in2="effect1_dropShadow_1_208" result="shape"/>
</filter>
<clipPath id="clip0_1_208">
<rect width="36" height="36" fill="white" transform="translate(44.9999 26)"/>
</clipPath>
</defs>
</svg>
