<svg width="50" height="50" viewBox="0 0 50 50" fill="none" xmlns="http://www.w3.org/2000/svg">
<rect x="0.359985" y="0.359985" width="48.96" height="48.96" rx="12.24" fill="#7F56D9"/>
<g clip-path="url(#clip0_1_223)">
<path d="M37.2712 30.2586H36.1875V29.3023H37.2712C38.0362 29.3023 38.6737 28.6648 38.6737 27.8998V21.2061C38.6737 19.9948 37.6537 18.9748 36.4425 18.9748H29.43C28.2187 18.9748 27.1987 19.9948 27.1987 21.2061V27.8998C27.1987 28.6648 27.8362 29.3023 28.6012 29.3023H29.685V30.2586H28.6012C27.2625 30.2586 26.2425 29.1748 26.2425 27.8998V21.2061C26.2425 19.4211 27.645 18.0186 29.43 18.0186H36.5062C38.2912 18.0186 39.6937 19.4211 39.6937 21.2061V27.8998C39.6937 29.2386 38.61 30.2586 37.2712 30.2586ZM32.9362 16.9986C31.0237 16.9986 29.43 15.4048 29.43 13.4923C29.43 11.5798 31.0237 9.98608 32.9362 9.98608C34.8487 9.98608 36.4425 11.5798 36.4425 13.4923C36.4425 15.4048 34.9125 16.9986 32.9362 16.9986ZM32.9362 11.0061C31.5337 11.0061 30.3862 12.1536 30.3862 13.5561C30.3862 14.9586 31.5337 16.1061 32.9362 16.1061C34.3387 16.1061 35.4862 14.9586 35.4862 13.5561C35.4862 12.1536 34.3387 11.0061 32.9362 11.0061Z" fill="#F5F5F4"/>
<path d="M34.5938 39.6935C33.9563 39.6935 33.3825 39.3748 33 38.9285C32.6175 39.3748 32.0438 39.6935 31.4063 39.6935C30.2588 39.6935 29.3025 38.7373 29.3025 37.5898V22.0348H30.2588V37.5898C30.2588 38.2273 30.7688 38.7373 31.4063 38.7373C32.0438 38.7373 32.49 38.1635 32.49 37.5898V29.8123H33.4463V37.5898C33.4463 38.2273 33.9563 38.7373 34.5938 38.7373C35.2313 38.7373 35.7413 38.2273 35.7413 37.5898V22.0348H36.6975V37.5898C36.6975 38.7373 35.7413 39.6935 34.5938 39.6935Z" fill="#F5F5F4"/>
<path d="M27.7087 33.0636H10.05V13.0461H28.0275V14.0024H11.0062V32.1074H27.7087V33.0636Z" fill="#F5F5F4"/>
<path d="M24.585 21.9712H13.62V22.9274H24.585V21.9712Z" fill="#F5F5F4"/>
<path d="M24.585 25.2224H13.62V26.1787H24.585V25.2224Z" fill="#F5F5F4"/>
<path d="M24.585 28.5374H13.62V29.4936H24.585V28.5374Z" fill="#F5F5F4"/>
</g>
<defs>
<clipPath id="clip0_1_223">
<rect width="30.6" height="30.6" fill="white" transform="translate(9.54001 9.53992)"/>
</clipPath>
</defs>
</svg>
