<svg width="50" height="50" viewBox="0 0 50 50" fill="none" xmlns="http://www.w3.org/2000/svg">
<rect x="0.359985" y="0.939941" width="48.96" height="48.96" rx="12.24" fill="#7F56D9"/>
<g clip-path="url(#clip0_1_208)">
<path d="M27.6999 35.35H21.3999L20.6499 33.325H9.32489V14.05C9.32489 13.15 10.0749 12.4 10.9749 12.4H39.0249C39.9249 12.4 40.6749 13.15 40.6749 14.05V33.4H29.1999L27.6999 35.35ZM22.2249 34.225H27.1749L28.6749 32.2H39.5499V14.05C39.5499 13.75 39.3249 13.525 39.0249 13.525H10.9749C10.6749 13.525 10.4499 13.75 10.4499 14.05V32.275H21.4749L22.2249 34.225Z" fill="white"/>
<path d="M37.5999 37.6H12.3999C9.6999 37.6 7.5249 35.425 7.5249 32.725V32.125H21.3999L22.1499 34.15H27.0999L28.5999 32.125H42.3999V32.725C42.4749 35.425 40.2249 37.6 37.5999 37.6ZM8.7249 33.325C9.0249 35.125 10.5249 36.475 12.3999 36.475H37.5249C39.3999 36.475 40.9749 35.125 41.1999 33.325H29.1999L27.6999 35.35H21.3999L20.6499 33.325H8.7249Z" fill="white"/>
<path d="M19.5249 16.375H13.7499V21.4H19.5249V16.375Z" fill="white"/>
<path d="M20.0499 21.925H13.1499V15.775H20.0499V21.925ZM14.2749 20.8H18.9249V16.9H14.2749V20.8Z" fill="white"/>
<path d="M19.5249 24.325H13.7499V29.3499H19.5249V24.325Z" fill="white"/>
<path d="M20.0499 29.95H13.1499V23.8H20.0499V29.95ZM14.2749 28.825H18.9249V24.925H14.2749V28.825Z" fill="white"/>
<path d="M36.5499 18.25H23.1249V19.375H36.5499V18.25Z" fill="white"/>
<path d="M36.5499 26.275H23.1249V27.4H36.5499V26.275Z" fill="white"/>
</g>
<defs>
<clipPath id="clip0_1_208">
<rect width="36" height="36" fill="white" transform="translate(6.99988 7)"/>
</clipPath>
</defs>
</svg>
