<svg width="24" height="25" viewBox="0 0 24 25" fill="none" xmlns="http://www.w3.org/2000/svg">
<path fill-rule="evenodd" clip-rule="evenodd" d="M12 0.285645C5.37527 0.285645 0 5.66092 0 12.2856C0 18.9104 5.37527 24.2856 12 24.2856C18.6117 24.2856 24 18.9104 24 12.2856C24 5.66092 18.6117 0.285645 12 0.285645ZM19.9262 5.8171C21.3579 7.56113 22.217 9.78672 22.243 12.1945C21.9046 12.1295 18.5206 11.4396 15.1106 11.8692C15.0325 11.7 14.9675 11.5177 14.8894 11.3355C14.6811 10.841 14.4469 10.3334 14.2126 9.85182C17.9869 8.31604 19.705 6.10343 19.9262 5.8171ZM12 2.05571C14.603 2.05571 16.9848 3.03185 18.7939 4.63272C18.6117 4.89302 17.0629 6.96244 13.4186 8.32902C11.7397 5.24443 9.87855 2.71948 9.5922 2.32903C10.3601 2.14681 11.1671 2.05571 12 2.05571ZM7.63995 3.01883C7.91325 3.38326 9.73538 5.92122 11.4404 8.94072C6.65076 10.2162 2.42083 10.1902 1.96529 10.1902C2.62907 7.01449 4.77657 4.37241 7.63995 3.01883ZM1.74404 12.2987C1.74404 12.1945 1.74404 12.0904 1.74404 11.9863C2.18655 11.9993 7.15835 12.0644 12.2733 10.5286C12.5727 11.1012 12.846 11.6869 13.1063 12.2726C12.9761 12.3117 12.8329 12.3507 12.7028 12.3897C7.41865 14.0947 4.60738 18.7542 4.3731 19.1446C2.7462 17.3355 1.74404 14.9277 1.74404 12.2987ZM12 22.5416C9.6312 22.5416 7.44469 21.7347 5.71367 20.3811C5.89588 20.0037 7.97827 15.995 13.757 13.9776C13.783 13.9646 13.7961 13.9646 13.8221 13.9516C15.2668 17.6869 15.8525 20.8236 16.0087 21.7216C14.7722 22.2552 13.4186 22.5416 12 22.5416ZM17.7136 20.7846C17.6096 20.1598 17.0629 17.1663 15.7223 13.483C18.9371 12.9754 21.7484 13.8084 22.0998 13.9256C21.6573 16.7759 20.0173 19.2357 17.7136 20.7846Z" fill="#98A2B3"/>
</svg>
