<svg width="24" height="25" viewBox="0 0 24 25" fill="none" xmlns="http://www.w3.org/2000/svg">
<g clip-path="url(#clip0_1_783)">
<path d="M24 12.2856C24 5.65822 18.6274 0.285645 12 0.285645C5.37258 0.285645 0 5.65822 0 12.2856C0 18.2751 4.3882 23.2396 10.125 24.1399V15.7544H7.07812V12.2856H10.125V9.6419C10.125 6.6344 11.9166 4.97314 14.6576 4.97314C15.9701 4.97314 17.3438 5.20752 17.3438 5.20752V8.16064H15.8306C14.34 8.16064 13.875 9.08572 13.875 10.0356V12.2856H17.2031L16.6711 15.7544H13.875V24.1399C19.6118 23.2396 24 18.2751 24 12.2856Z" fill="#98A2B3"/>
</g>
<defs>
<clipPath id="clip0_1_783">
<rect width="24" height="24" fill="white" transform="translate(0 0.285645)"/>
</clipPath>
</defs>
</svg>
