<svg width="24" height="24" viewBox="0 0 24 24" fill="none" xmlns="http://www.w3.org/2000/svg">
<path fill-rule="evenodd" clip-rule="evenodd" d="M12 0.285645C5.3724 0.285645 0 5.66644 0 12.306C0 17.616 3.438 22.122 8.2068 23.7108C8.8068 23.8212 9.0252 23.4504 9.0252 23.1312C9.0252 22.8468 9.0156 22.0896 9.0096 21.0876C5.6712 21.8136 4.9668 19.476 4.9668 19.476C4.422 18.0864 3.6348 17.7168 3.6348 17.7168C2.5452 16.9728 3.7176 16.9872 3.7176 16.9872C4.9212 17.0712 5.5548 18.2256 5.5548 18.2256C6.6252 20.0616 8.364 19.5312 9.0468 19.224C9.1572 18.4476 9.4668 17.9184 9.81 17.6184C7.146 17.3148 4.344 16.2828 4.344 11.6772C4.344 10.3656 4.812 9.29164 5.5788 8.45164C5.4552 8.14804 5.0436 6.92524 5.6964 5.27164C5.6964 5.27164 6.7044 4.94764 8.9964 6.50284C9.97532 6.23586 10.9853 6.09988 12 6.09844C13.02 6.10324 14.046 6.23644 15.0048 6.50284C17.2956 4.94764 18.3012 5.27044 18.3012 5.27044C18.9564 6.92524 18.5436 8.14804 18.4212 8.45164C19.1892 9.29164 19.6548 10.3656 19.6548 11.6772C19.6548 16.2948 16.848 17.3112 14.1756 17.6088C14.6064 17.9796 14.9892 18.7128 14.9892 19.8348C14.9892 21.4404 14.9748 22.7376 14.9748 23.1312C14.9748 23.4528 15.1908 23.8272 15.8004 23.7096C18.19 22.9082 20.2672 21.376 21.7386 19.3297C23.2099 17.2834 24.001 14.8264 24 12.306C24 5.66644 18.6264 0.285645 12 0.285645Z" fill="#98A2B3"/>
</svg>
