<svg width="24" height="25" viewBox="0 0 24 25" fill="none" xmlns="http://www.w3.org/2000/svg">
<path d="M22.2234 0.285645H1.77187C0.792187 0.285645 0 1.05908 0 2.01533V22.5513C0 23.5075 0.792187 24.2856 1.77187 24.2856H22.2234C23.2031 24.2856 24 23.5075 24 22.556V2.01533C24 1.05908 23.2031 0.285645 22.2234 0.285645ZM7.12031 20.7372H3.55781V9.28096H7.12031V20.7372ZM5.33906 7.72002C4.19531 7.72002 3.27188 6.79658 3.27188 5.65752C3.27188 4.51846 4.19531 3.59502 5.33906 3.59502C6.47813 3.59502 7.40156 4.51846 7.40156 5.65752C7.40156 6.79189 6.47813 7.72002 5.33906 7.72002ZM20.4516 20.7372H16.8937V15.1685C16.8937 13.8419 16.8703 12.131 15.0422 12.131C13.1906 12.131 12.9094 13.5794 12.9094 15.0747V20.7372H9.35625V9.28096H12.7687V10.8466H12.8156C13.2891 9.94658 14.4516 8.99502 16.1813 8.99502C19.7859 8.99502 20.4516 11.3669 20.4516 14.4513V20.7372Z" fill="#98A2B3"/>
</svg>
