<svg width="24" height="25" viewBox="0 0 24 25" fill="none" xmlns="http://www.w3.org/2000/svg">
<path d="M7.55016 22.0356C16.6045 22.0356 21.5583 14.5323 21.5583 8.02751C21.5583 7.81657 21.5536 7.60094 21.5442 7.39001C22.5079 6.69311 23.3395 5.8299 24 4.84094C23.1025 5.24024 22.1496 5.50103 21.1739 5.61438C22.2013 4.99855 22.9705 4.03112 23.3391 2.89141C22.3726 3.4642 21.3156 3.86826 20.2134 4.08626C19.4708 3.29721 18.489 2.77476 17.4197 2.5997C16.3504 2.42463 15.2532 2.60669 14.2977 3.11774C13.3423 3.62879 12.5818 4.44035 12.1338 5.42696C11.6859 6.41356 11.5754 7.52026 11.8195 8.57594C9.86249 8.47774 7.94794 7.96935 6.19998 7.08374C4.45203 6.19814 2.90969 4.95508 1.67297 3.43516C1.0444 4.51889 0.852057 5.80129 1.13503 7.02174C1.418 8.24218 2.15506 9.30909 3.19641 10.0056C2.41463 9.98081 1.64998 9.77032 0.965625 9.39157V9.45251C0.964925 10.5898 1.3581 11.6922 2.07831 12.5724C2.79852 13.4526 3.80132 14.0562 4.91625 14.2806C4.19206 14.4788 3.43198 14.5076 2.69484 14.365C3.00945 15.3431 3.62157 16.1985 4.44577 16.812C5.26997 17.4254 6.26512 17.7662 7.29234 17.7869C5.54842 19.1568 3.39417 19.8998 1.17656 19.8963C0.783287 19.8957 0.390399 19.8715 0 19.8241C2.25286 21.2694 4.87353 22.037 7.55016 22.0356Z" fill="#98A2B3"/>
</svg>
